LEGEND of GUARDIANS 2010 CAM XviD

Format : AVI
Format/Info : Audio Video Interleave
File size : 650 MiB
Duration : 1h 27mn
Overall bit rate : 1 034 Kbps
Encoded by : vicerock/vicez
Writing library : VirtualDub build 32618/release
Original source form : recoded from mangets version

Video
ID : 0
Format : MPEG-4 Visual
Format profile : AdvancedSimple@L5
Format settings, BVOP : Yes
Format settings, QPel : No
Format settings, GMC : No warppoints
Format settings, Matrix : Default (H.263)
Muxing mode : Packed bitstream
Codec ID : XVID
Codec ID/Hint : XviD
Duration : 1h 27mn
Bit rate : 882 Kbps
Width : 720 pixels
Height : 304 pixels
Display aspect ratio : 2.35:1
Frame rate : 59.940 fps
Resolution : 24 bits
Colorimetry : 4:2:0
Scan type : Progressive
Bits/(Pixel*Frame) : 0.067
Stream size : 555 MiB (85%)
Writing library : XviD 1.1.2 (UTC 2006-11-01)

Audio
ID : 1
Format : MPEG Audio
Format version : Version 1
Format profile : Layer 2
Codec ID : 50
Codec ID/Hint : MP1
Duration : 1h 27mn
Bit rate mode : Constant
Bit rate : 128 Kbps
Channel(s) : 2 channels
Sampling rate : 48.0 KHz
Resolution : 16 bits
Stream size : 80.5 MiB (12%)
Alignment : Split accross interleaves
Interleave, duration : 17 ms (1.00 video frame)
Interleave, preload duration : 500 ms

Soren (Jim Sturgess) is a young adventurous Barn Owl who loves hearing stories from his father Noctus (Hugo Weaving) about the legend of the Guardians of Ga'Hoole, a legendary alliance of owls that are sworn to protect the Kingdom of Ga'Hoole. His younger sister Eglantine (Adrienne deFaria) is enamoured by these stories, but his older brother, Kludd (Ryan Kwanten), is jealous of the attention Soren receives. One night, after falling out of their tree, Soren and Kludd are attacked by a tasmanian devil and then captured by owls working for the evil Metalbeak (Joel Edgerton) and his mate Nyra (Helen Mirren).
 
http://www.imdb.com/title/tt1219342/

PLEASE SEED AND ENJOY THANKS

screen shots
 
http://img299.imageshack.us/img299/1321/logxvidviceavisnapshot0.jpg 
http://img836.imageshack.us/img836/1321/logxvidviceavisnapshot0.jpg 
http://img203.imageshack.us/img203/1321/logxvidviceavisnapshot0.jpg 
http://img228.imageshack.us/img228/1321/logxvidviceavisnapshot0.jpg